<?xml version="1.0" encoding="UTF-8" standalone="no"?><!-- Generator: Gravit.io --><svg xmlns="http://www.w3.org/2000/svg" xmlns:xlink="http://www.w3.org/1999/xlink" style="isolation:isolate" viewBox="0 0 500 500" width="500pt" height="500pt"><defs><clipPath id="_clipPath_8XOzVTnORlbPOsl2WNOPzxxmzG8dLfRh"><rect width="500" height="500"/></clipPath></defs><g clip-path="url(#_clipPath_8XOzVTnORlbPOsl2WNOPzxxmzG8dLfRh)"><g><g><path d=" M 192 355 L 66.36 355 L 27.784 400 L 153.423 400 L 192 355 Z " fill="rgb(204,195,251)"/></g><g><rect x="27.784" y="400" width="126.624" height="239" transform="matrix(1,0,0,1,0,0)" fill="rgb(218,211,253)"/><rect x="148.291" y="335.875" width="37.99" height="49.125" transform="matrix(1,0,0,1,0,0)" fill="rgb(188,176,249)"/><linearGradient id="_lgradient_0" x1="0.4261016531682252" y1="0.7725694444444444" x2="0.551867259321211" y2="-0.12326388888888928" gradientTransform="matrix(77.629,0,0,335.505,153.371,303.495)" gradientUnits="userSpaceOnUse"><stop offset="0%" stop-opacity="1" style="stop-color:rgb(129,143,255)"/><stop offset="100%" stop-opacity="1" style="stop-color:rgb(144,113,244)"/></linearGradient><path d=" M 165.693 336.505 L 165.693 385.25 L 166.093 385.25 L 153.371 400 L 153.371 400 L 192.185 400 L 231 400 L 218.277 385.25 L 218.277 385.25 L 218.678 385.25 L 218.678 336.505 L 218.766 336.505 L 218.678 336.395 L 218.678 336 L 218.36 336 L 205.476 320 L 192.185 303.495 L 178.895 320 L 166.011 336 L 165.693 336 L 165.693 336.395 L 165.605 336.505 L 165.693 336.505 Z  M 153.422 400 L 231 400 L 231 639 L 153.422 639 L 153.422 400 L 153.422 400 L 153.422 400 Z " fill-rule="evenodd" fill="url(#_lgradient_0)"/><circle vector-effect="non-scaling-stroke" cx="195.88681520393794" cy="358.5436375237751" r="6.706362476224939" fill="rgb(255,255,255)" fill-opacity="0.53"/><path d=" M 174.75 304 L 192.018 303.755 L 166.267 338 L 148.291 335.875 L 174.75 304 Z " fill="rgb(188,176,249)"/></g></g><linearGradient id="_lgradient_1" x1="0" y1="0.5" x2="1" y2="0.5" gradientTransform="matrix(100,0,0,71,224,463)" gradientUnits="userSpaceOnUse"><stop offset="0%" stop-opacity="1" style="stop-color:rgb(204,195,251)"/><stop offset="97.3913043478261%" stop-opacity="1" style="stop-color:rgb(218,211,253)"/></linearGradient><path d=" M 279.529 475.064 C 273.864 467.726 264.979 463 255 463 C 237.891 463 224 476.891 224 494 C 224 511.109 237.891 525 255 525 C 259.824 525 264.392 523.896 268.471 521.936 C 274.136 529.274 283.021 534 293 534 C 310.109 534 324 520.109 324 503 C 324 485.891 310.109 472 293 472 C 288.176 472 283.608 473.104 279.529 475.064 Z " fill-rule="evenodd" fill="url(#_lgradient_1)"/><rect x="50" y="456.061" width="30.303" height="81.818" transform="matrix(1,0,0,1,0,0)" fill="rgb(235,235,235)"/></g></svg>